<svg width="86" height="54" viewBox="0 0 86 54" fill="none" xmlns="http://www.w3.org/2000/svg">
<path d="M11.9542 3.84925H11.9541C11.3468 3.84921 10.7568 4.05209 10.2779 4.42565C9.79907 4.79918 9.45873 5.32196 9.31091 5.911C9.3109 5.91105 9.31089 5.91111 9.31087 5.91117L3.72515 28.2648V41.5492H6.07918C6.45016 39.2416 7.60563 37.1269 9.35773 35.5664C11.2212 33.9066 13.6297 32.9896 16.1251 32.9896C18.6206 32.9896 21.0291 33.9066 22.8926 35.5664C24.6447 37.1269 25.8001 39.2416 26.1711 41.5492H55.5292C55.9002 39.2416 57.0556 37.1269 58.8077 35.5664C60.6712 33.9066 63.0797 32.9896 65.5751 32.9896C68.0706 32.9896 70.4791 33.9066 72.3426 35.5664C74.0947 37.1269 75.2501 39.2416 75.6211 41.5492H82.2751V29.0027L73.7661 24.2742H11.02H11.0189V23.7742C10.8556 23.7751 10.6943 23.7388 10.5471 23.668C10.4 23.5972 10.2709 23.4939 10.1697 23.3657L11.9542 3.84925ZM11.9542 3.84925H14.1088M11.9542 3.84925H14.1088M14.1088 3.84925L9.49151 22.3183C9.49143 22.3186 9.49135 22.3189 9.49126 22.3192L14.1088 3.84925ZM84.6219 26.7031L84.6199 26.702L75.2152 21.4725L60.5927 2.93212L60.5924 2.93175C60.0404 2.23314 59.3368 1.66915 58.5348 1.28239C57.733 0.895759 56.8539 0.69636 55.9638 0.69925L11.9542 0.69925L11.954 0.69925C10.6435 0.699612 9.37077 1.13812 8.33817 1.94504C7.30567 2.75188 6.57255 3.88073 6.25536 5.15211C6.25533 5.15224 6.25529 5.15237 6.25526 5.1525L0.59023 27.6944L0.582547 27.725L0.578764 27.7562C0.564908 27.8709 0.563704 27.9867 0.575151 28.1015V43.1242C0.575151 43.542 0.741088 43.9426 1.03646 44.2379C1.33183 44.5333 1.73244 44.6992 2.15015 44.6992H6.07918C6.45016 47.0069 7.60563 49.1216 9.35773 50.6821C11.2212 52.3419 13.6297 53.2589 16.1251 53.2589C18.6206 53.2589 21.0291 52.3419 22.8926 50.6821C24.6447 49.1216 25.8001 47.0069 26.1711 44.6992H55.5292C55.9002 47.0069 57.0556 49.1216 58.8077 50.6821C60.6712 52.3419 63.0797 53.2589 65.5751 53.2589C68.0706 53.2589 70.4791 52.3419 72.3426 50.6821C74.0947 49.1216 75.2501 47.0069 75.6211 44.6992H83.8501C84.2679 44.6992 84.6685 44.5333 84.9638 44.2379C85.2592 43.9426 85.4251 43.542 85.4251 43.1242L85.4251 28.0742L85.4251 28.0734C85.4247 27.7943 85.35 27.5204 85.2089 27.2796C85.0678 27.0388 84.8652 26.8399 84.6219 26.7031ZM55.9646 3.84925L55.9657 3.84925C56.3781 3.8484 56.7852 3.94115 57.1566 4.12052C57.5278 4.29985 57.8535 4.56109 58.1092 4.88456C58.1092 4.88462 58.1093 4.88468 58.1093 4.88475L70.9289 21.1242H42.8229V3.84925L55.9646 3.84925ZM39.6729 3.84925V21.1242H13.0353L17.354 3.84925H39.6729ZM16.1251 50.1493C14.7357 50.1493 13.3775 49.7372 12.2223 48.9653C11.067 48.1934 10.1666 47.0962 9.6349 45.8126C9.10319 44.5289 8.96407 43.1165 9.23513 41.7537C9.5062 40.391 10.1753 39.1393 11.1577 38.1568C12.1402 37.1744 13.3919 36.5053 14.7546 36.2342C16.1174 35.9632 17.5299 36.1023 18.8135 36.634C20.0972 37.1657 21.1943 38.0661 21.9662 39.2214C22.7381 40.3766 23.1502 41.7348 23.1502 43.1242C23.1502 44.9874 22.41 46.7742 21.0926 48.0917C19.7751 49.4091 17.9883 50.1493 16.1251 50.1493ZM65.5751 50.1493C64.1857 50.1493 62.8275 49.7372 61.6723 48.9653C60.517 48.1934 59.6166 47.0962 59.0849 45.8126C58.5532 44.5289 58.4141 43.1165 58.6851 41.7537C58.9562 40.391 59.6253 39.1393 60.6077 38.1568C61.5902 37.1744 62.8419 36.5053 64.2046 36.2342C65.5674 35.9632 66.9798 36.1023 68.2635 36.634C69.5471 37.1657 70.6443 38.0661 71.4162 39.2214C72.1881 40.3766 72.6001 41.7348 72.6001 43.1242C72.6001 44.9874 71.86 46.7742 70.5426 48.0917C69.2251 49.4091 67.4383 50.1493 65.5751 50.1493Z" fill="#FA5B37" stroke="#FA5B37"/>
</svg>
